<svg width="52" height="52" viewBox="0 0 52 52" fill="none" xmlns="http://www.w3.org/2000/svg">
<path d="M26 0C20.8577 0 15.8309 1.52487 11.5552 4.38179C7.27951 7.23871 3.94702 11.2993 1.97914 16.0502C0.0112654 20.8011 -0.503621 26.0288 0.499594 31.0723C1.50281 36.1158 3.97907 40.7486 7.61523 44.3848C11.2514 48.0209 15.8842 50.4972 20.9277 51.5004C25.9712 52.5036 31.1989 51.9887 35.9498 50.0209C40.7006 48.053 44.7613 44.7205 47.6182 40.4448C50.4751 36.1691 52 31.1423 52 26C51.9927 19.1066 49.2511 12.4976 44.3767 7.62326C39.5024 2.74889 32.8934 0.00727955 26 0ZM26 48C21.6488 48 17.3953 46.7097 13.7775 44.2923C10.1596 41.8749 7.33979 38.439 5.67466 34.419C4.00953 30.3991 3.57386 25.9756 4.42273 21.708C5.27161 17.4404 7.36691 13.5204 10.4437 10.4436C13.5204 7.36689 17.4404 5.2716 21.708 4.42272C25.9756 3.57385 30.3991 4.00952 34.419 5.67465C38.439 7.33978 41.8749 10.1596 44.2923 13.7775C46.7097 17.3953 48 21.6488 48 26C47.9934 31.8327 45.6734 37.4247 41.549 41.549C37.4247 45.6734 31.8327 47.9934 26 48ZM35.415 32.585C35.6008 32.7708 35.7482 32.9914 35.8488 33.2342C35.9494 33.477 36.0011 33.7372 36.0011 34C36.0011 34.2628 35.9494 34.523 35.8488 34.7658C35.7482 35.0086 35.6008 35.2292 35.415 35.415C35.2292 35.6008 35.0086 35.7482 34.7658 35.8488C34.523 35.9493 34.2628 36.0011 34 36.0011C33.7372 36.0011 33.477 35.9493 33.2342 35.8488C32.9914 35.7482 32.7708 35.6008 32.585 35.415L20 22.8275V30C20 30.5304 19.7893 31.0391 19.4142 31.4142C19.0391 31.7893 18.5304 32 18 32C17.4696 32 16.9609 31.7893 16.5858 31.4142C16.2107 31.0391 16 30.5304 16 30V18C16 17.4696 16.2107 16.9609 16.5858 16.5858C16.9609 16.2107 17.4696 16 18 16H30C30.5304 16 31.0391 16.2107 31.4142 16.5858C31.7893 16.9609 32 17.4696 32 18C32 18.5304 31.7893 19.0391 31.4142 19.4142C31.0391 19.7893 30.5304 20 30 20H22.8275L35.415 32.585Z" fill="#F0CF20"/>
</svg>
